# Blender v2.81 (sub 16) OBJ File: ''
# www.blender.org
o Cube
v 1.046245 0.440509 -0.283700
v 1.095563 -0.457811 -0.737960
v 1.000000 1.000000 1.000000
v 0.937052 -0.482240 0.805599
v -0.495371 0.791862 -0.134161
v -1.131436 -0.366995 -0.408941
v -1.000000 1.000000 1.000000
v -1.000000 -1.000000 1.000000
v -0.980681 -0.755286 1.932436
v -0.522395 0.871307 2.142921
v 0.484985 0.597728 1.954720
v 1.017541 -0.674530 1.908167
vt 0.472347 0.864236
vt 0.701449 0.649568
vt 0.736424 0.864236
vt 0.387067 0.218667
vt 0.650699 0.447196
vt 0.370565 0.447196
vt 0.650739 0.000000
vt 0.715676 0.283223
vt 0.370565 0.000000
vt 0.012954 0.334075
vt 0.000000 0.049429
vt 0.110654 0.928070
vt 0.249783 0.708200
vt 0.266313 1.000000
vt 0.736424 0.771174
vt 0.942316 0.447196
vt 0.942316 0.871995
vt 0.998429 0.159585
vt 0.715676 0.359367
vt 0.817099 0.000000
vt 0.342275 0.286464
vt 0.018136 0.498144
vt 0.370565 0.667532
vt 0.612639 0.462178
vt 0.000000 0.694807
vt 0.266313 0.498144
vt 0.442915 0.032276
vt 0.776171 0.474864
vt 1.000000 0.359367
vt 0.352287 0.498144
vt 0.438057 0.447196
vt 0.055934 0.506043
vn 0.1687 0.9058 -0.3887
vn -0.8956 0.2010 0.3969
vn -0.9957 0.0000 0.0929
vn -0.0963 -0.9113 -0.4004
vn 0.9948 0.0029 0.1022
vn -0.1279 0.2947 -0.9470
vn 0.0134 -0.0310 0.9994
vn 0.2731 -0.9319 0.2389
vn 0.0000 0.9215 0.3883
vn 0.9964 -0.0320 -0.0783
vn 0.0000 0.9836 -0.1805
vn -0.9998 0.0000 0.0207
vn -0.7467 0.5109 -0.4260
vn 0.2593 -0.9657 0.0113
vn 0.9971 -0.0499 0.0577
vn 0.0165 0.4519 -0.8919
vn 0.1376 -0.1651 0.9766
vn 0.0376 -0.9840 -0.1744
vn 0.2619 0.9651 -0.0008
vn 0.7782 0.3057 0.5486
s off
f 5/1/1 3/2/1 1/3/1
f 7/4/2 9/5/2 10/6/2
f 7/4/3 6/7/3 8/8/3
f 2/9/4 8/10/4 6/11/4
f 1/12/5 4/13/5 2/14/5
f 5/15/6 2/16/6 6/17/6
f 11/18/7 9/19/7 12/20/7
f 4/21/8 9/22/8 8/10/8
f 7/23/9 11/24/9 3/2/9
f 3/25/10 12/26/10 4/13/10
f 5/1/11 7/23/11 3/2/11
f 7/4/12 8/8/12 9/5/12
f 7/4/13 5/27/13 6/7/13
f 2/9/14 4/21/14 8/10/14
f 1/12/15 3/25/15 4/13/15
f 5/15/16 1/28/16 2/16/16
f 11/18/17 10/29/17 9/19/17
f 4/21/18 12/30/18 9/22/18
f 7/23/19 10/31/19 11/24/19
f 3/25/20 11/32/20 12/26/20
